<?xml version="1.0" encoding="UTF-8" standalone="yes"?><svg xmlns="http://www.w3.org/2000/svg" xmlns:xlink="http://www.w3.org/1999/xlink" height="380.8px" style="width:1316px;height:380px;" version="1.1" viewBox="0 0 1316 380" width="1316.8px"><defs><filter height="300%" id="f1" width="300%" x="-1" y="-1"><feGaussianBlur result="blurOut" stdDeviation="3.200000047683716"/><feColorMatrix in="blurOut" result="blurOut2" type="matrix" values="0 0 0 0 0 0 0 0 0 0 0 0 0 0 0 0 0 0 .4 0"/><feOffset dx="6.400000095367432" dy="6.400000095367432" in="blurOut2" result="blurOut3"/><feBlend in="SourceGraphic" in2="blurOut3" mode="normal"/></filter></defs><g><ellipse cx="657.9064" cy="52.7013" fill="#FEFECE" filter="url(#f1)" rx="180.3064" ry="39.9013" style="stroke: #A80036; stroke-width: 2.400000035762787;"/><text fill="#000000" font-family="sans-serif" font-size="22.4" lengthAdjust="spacingAndGlyphs" textLength="289.6" x="513.1064" y="53.6478">Ui Node with Game Engine</text><text fill="#000000" font-family="sans-serif" font-size="22.4" lengthAdjust="spacingAndGlyphs" textLength="38.4" x="597.1064" y="80.029">run</text><text fill="#000000" font-family="monospaced" font-size="22.4" lengthAdjust="spacingAndGlyphs" textLength="76.8" x="641.9064" y="79.4712">sbt ui</text><ellipse cx="148.8219" cy="52.7114" fill="#FEFECE" filter="url(#f1)" rx="106.4219" ry="38.3114" style="stroke: #A80036; stroke-width: 2.400000035762787;"/><text fill="#000000" font-family="sans-serif" font-size="22.4" lengthAdjust="spacingAndGlyphs" textLength="62.4" x="118.2843" y="41.6711">CLI UI</text><text fill="#000000" font-family="sans-serif" font-size="22.4" lengthAdjust="spacingAndGlyphs" textLength="38.4" x="69.4843" y="68.0523">run</text><text fill="#000000" font-family="monospaced" font-size="22.4" lengthAdjust="spacingAndGlyphs" textLength="115.2" x="114.2843" y="67.4945">sbt cliui</text><ellipse cx="1006.65" cy="52.9437" fill="#FEFECE" filter="url(#f1)" rx="113.05" ry="40.1437" style="stroke: #A80036; stroke-width: 2.400000035762787;"/><text fill="#000000" font-family="sans-serif" font-size="22.4" lengthAdjust="spacingAndGlyphs" textLength="161.6" x="925.85" y="50.2046">Shared Journal</text><text fill="#000000" font-family="sans-serif" font-size="22.4" lengthAdjust="spacingAndGlyphs" textLength="38.4" x="945.85" y="76.5859">run</text><text fill="#000000" font-family="monospaced" font-size="22.4" lengthAdjust="spacingAndGlyphs" textLength="76.8" x="990.65" y="76.028">sbt sj</text><ellipse cx="148.8854" cy="278.9079" fill="#FEFECE" filter="url(#f1)" rx="139.2854" ry="72.5079" style="stroke: #A80036; stroke-width: 2.400000035762787;"/><text fill="#000000" font-family="sans-serif" font-size="22.4" lengthAdjust="spacingAndGlyphs" textLength="209.6" x="44.0854" y="257.2571">Command center 1</text><text fill="#0000FF" font-family="sans-serif" font-size="22.4" lengthAdjust="spacingAndGlyphs" textLength="144" x="76.8854" y="283.6384">StatusKeeper</text><text fill="#000000" font-family="sans-serif" font-size="22.4" lengthAdjust="spacingAndGlyphs" textLength="83.2" x="107.2854" y="310.0196">Tower1</text><text fill="#000000" font-family="sans-serif" font-size="22.4" lengthAdjust="spacingAndGlyphs" textLength="97.6" x="100.0854" y="336.4009">Tower12</text><ellipse cx="486.0735" cy="279.486" fill="#FEFECE" filter="url(#f1)" rx="141.2735" ry="90.686" style="stroke: #A80036; stroke-width: 2.400000035762787;"/><text fill="#000000" font-family="sans-serif" font-size="22.4" lengthAdjust="spacingAndGlyphs" textLength="209.6" x="381.2735" y="245.2528">Command center 2</text><text fill="#000000" font-family="sans-serif" font-size="22.4" lengthAdjust="spacingAndGlyphs" textLength="97.6" x="437.2735" y="271.6341">Tower11</text><text fill="#000000" font-family="sans-serif" font-size="22.4" lengthAdjust="spacingAndGlyphs" textLength="83.2" x="444.4735" y="298.0153">Tower2</text><text fill="#000000" font-family="sans-serif" font-size="22.4" lengthAdjust="spacingAndGlyphs" textLength="83.2" x="444.4735" y="324.3966">Tower4</text><text fill="#000000" font-family="sans-serif" font-size="22.4" lengthAdjust="spacingAndGlyphs" textLength="38.4" x="425.2735" y="350.7778">run</text><text fill="#000000" font-family="monospaced" font-size="22.4" lengthAdjust="spacingAndGlyphs" textLength="76.8" x="470.0735" y="350.22">sbt cc</text><ellipse cx="825.2735" cy="279.486" fill="#FEFECE" filter="url(#f1)" rx="141.2735" ry="90.686" style="stroke: #A80036; stroke-width: 2.400000035762787;"/><text fill="#000000" font-family="sans-serif" font-size="22.4" lengthAdjust="spacingAndGlyphs" textLength="209.6" x="720.4735" y="245.2528">Command center 3</text><text fill="#000000" font-family="sans-serif" font-size="22.4" lengthAdjust="spacingAndGlyphs" textLength="83.2" x="783.6735" y="271.6341">Tower7</text><text fill="#000000" font-family="sans-serif" font-size="22.4" lengthAdjust="spacingAndGlyphs" textLength="83.2" x="783.6735" y="298.0153">Tower5</text><text fill="#000000" font-family="sans-serif" font-size="22.4" lengthAdjust="spacingAndGlyphs" textLength="83.2" x="783.6735" y="324.3966">Tower3</text><text fill="#000000" font-family="sans-serif" font-size="22.4" lengthAdjust="spacingAndGlyphs" textLength="38.4" x="764.4735" y="350.7778">run</text><text fill="#000000" font-family="monospaced" font-size="22.4" lengthAdjust="spacingAndGlyphs" textLength="76.8" x="809.2735" y="350.22">sbt cc</text><ellipse cx="1164.4735" cy="279.486" fill="#FEFECE" filter="url(#f1)" rx="141.2735" ry="90.686" style="stroke: #A80036; stroke-width: 2.400000035762787;"/><text fill="#000000" font-family="sans-serif" font-size="22.4" lengthAdjust="spacingAndGlyphs" textLength="209.6" x="1059.6735" y="245.2528">Command center 4</text><text fill="#000000" font-family="sans-serif" font-size="22.4" lengthAdjust="spacingAndGlyphs" textLength="83.2" x="1122.8735" y="271.6341">Tower8</text><text fill="#000000" font-family="sans-serif" font-size="22.4" lengthAdjust="spacingAndGlyphs" textLength="97.6" x="1115.6735" y="298.0153">Tower11</text><text fill="#000000" font-family="sans-serif" font-size="22.4" lengthAdjust="spacingAndGlyphs" textLength="83.2" x="1122.8735" y="324.3966">Tower9</text><text fill="#000000" font-family="sans-serif" font-size="22.4" lengthAdjust="spacingAndGlyphs" textLength="38.4" x="1103.6735" y="350.7778">run</text><text fill="#000000" font-family="monospaced" font-size="22.4" lengthAdjust="spacingAndGlyphs" textLength="76.8" x="1148.4735" y="350.22">sbt cc</text><path d="M558.2176,90.2752 C489.5824,115.8544 396.6464,152.0896 316.8,188.8 C294.9872,198.8288 271.9984,210.3318 250.2672,221.6605 " fill="none" style="stroke: #A80036; stroke-width: 1.600000023841858;"/><polygon fill="#A80036" points="242.9488,225.4933,258.6744,224.4812,250.0355,221.7814,252.7354,213.1424,242.9488,225.4933" style="stroke: #A80036; stroke-width: 1.600000023841858;"/><polygon fill="#A80036" points="566.0432,87.3648,550.3154,86.3864,558.5451,90.1537,554.7777,98.3834,566.0432,87.3648" style="stroke: #A80036; stroke-width: 1.600000023841858;"/><path d="M622.8592,99.6928 C602.8944,125.7232 577.136,159.3056 553.3856,190.2672 " fill="none" style="stroke: #A80036; stroke-width: 1.600000023841858;"/><polygon fill="#A80036" points="548.0352,197.2432,561.876,189.7099,552.9029,190.8946,551.7182,181.9215,548.0352,197.2432" style="stroke: #A80036; stroke-width: 1.600000023841858;"/><polygon fill="#A80036" points="628.1696,92.7696,614.3288,100.3029,623.3019,99.1182,624.4866,108.0913,628.1696,92.7696" style="stroke: #A80036; stroke-width: 1.600000023841858;"/><path d="M691.6912,99.6928 C711.2832,125.7232 736.56,159.3056 759.8656,190.2672 " fill="none" style="stroke: #A80036; stroke-width: 1.600000023841858;"/><polygon fill="#A80036" points="765.1168,197.2432,761.5687,181.8897,760.3051,190.852,751.3428,189.5884,765.1168,197.2432" style="stroke: #A80036; stroke-width: 1.600000023841858;"/><polygon fill="#A80036" points="686.48,92.7696,690.0281,108.1231,691.2917,99.1608,700.254,100.4244,686.48,92.7696" style="stroke: #A80036; stroke-width: 1.600000023841858;"/><path d="M755.9776,90.4816 C823.9344,116.152 915.9904,152.4144 995.2,188.8 C1013.3312,197.128 1032.2848,206.4336 1050.6784,215.8002 " fill="none" style="stroke: #A80036; stroke-width: 1.600000023841858;"/><polygon fill="#A80036" points="1057.9696,219.5312,1048.0645,207.2752,1050.8475,215.8877,1042.235,218.6707,1057.9696,219.5312" style="stroke: #A80036; stroke-width: 1.600000023841858;"/><polygon fill="#A80036" points="748.2288,87.5616,759.4474,98.6279,755.715,90.3824,763.9606,86.65,748.2288,87.5616" style="stroke: #A80036; stroke-width: 1.600000023841858;"/><path d="M148.8,91.2576 C148.8,120.2656 148.8,161.7424 148.8,198.2048 " fill="none" style="stroke: #A80036; stroke-width: 1.600000023841858;"/><polygon fill="#A80036" points="148.8,206.384,155.2,191.984,148.8,198.384,142.4,191.984,148.8,206.384" style="stroke: #A80036; stroke-width: 1.600000023841858;"/></g></svg>