<?xml version="1.0" encoding="UTF-8" standalone="yes"?><svg xmlns="http://www.w3.org/2000/svg" xmlns:xlink="http://www.w3.org/1999/xlink" height="684px" style="width:1015px;height:683px;" version="1.1" viewBox="0 0 1015 683" width="1015.2px"><defs><filter height="300%" id="f1" width="300%" x="-1" y="-1"><feGaussianBlur result="blurOut" stdDeviation="3.5999999046325684"/><feColorMatrix in="blurOut" result="blurOut2" type="matrix" values="0 0 0 0 0 0 0 0 0 0 0 0 0 0 0 0 0 0 .4 0"/><feOffset dx="7.199999809265137" dy="7.199999809265137" in="blurOut2" result="blurOut3"/><feBlend in="SourceGraphic" in2="blurOut3" mode="normal"/></filter></defs><g><text fill="#000000" font-family="sans-serif" font-size="25.2" font-weight="bold" lengthAdjust="spacingAndGlyphs" textLength="286.2" x="368.1" y="42.3633">General message flow</text><rect fill="#FFFFFF" filter="url(#f1)" height="431.0719" style="stroke: #000000; stroke-width: 3.5999999046325684;" width="977.4" x="21.6" y="154.7578"/><line style="stroke: #A80036; stroke-width: 1.7999999523162842; stroke-dasharray: 5.0,5.0;" x1="145.8" x2="145.8" y1="124.1578" y2="616.4297"/><line style="stroke: #A80036; stroke-width: 1.7999999523162842; stroke-dasharray: 5.0,5.0;" x1="376.2" x2="376.2" y1="124.1578" y2="616.4297"/><line style="stroke: #A80036; stroke-width: 1.7999999523162842; stroke-dasharray: 5.0,5.0;" x1="624.6" x2="624.6" y1="124.1578" y2="616.4297"/><line style="stroke: #A80036; stroke-width: 1.7999999523162842; stroke-dasharray: 5.0,5.0;" x1="867.6" x2="867.6" y1="124.1578" y2="616.4297"/><rect fill="#FEFECE" filter="url(#f1)" height="54.8789" style="stroke: #A80036; stroke-width: 2.6999999284744263;" width="180" x="52.2" y="60.2789"/><text fill="#000000" font-family="sans-serif" font-size="25.2" lengthAdjust="spacingAndGlyphs" textLength="154.8" x="64.8" y="97.2422">GameEngine</text><rect fill="#FEFECE" filter="url(#f1)" height="54.8789" style="stroke: #A80036; stroke-width: 2.6999999284744263;" width="180" x="52.2" y="614.6297"/><text fill="#000000" font-family="sans-serif" font-size="25.2" lengthAdjust="spacingAndGlyphs" textLength="154.8" x="64.8" y="651.593">GameEngine</text><rect fill="#FEFECE" filter="url(#f1)" height="54.8789" style="stroke: #A80036; stroke-width: 2.6999999284744263;" width="230.4" x="257.4" y="60.2789"/><text fill="#000000" font-family="sans-serif" font-size="25.2" lengthAdjust="spacingAndGlyphs" textLength="205.2" x="270" y="97.2422">EnemyGenerator</text><rect fill="#FEFECE" filter="url(#f1)" height="54.8789" style="stroke: #A80036; stroke-width: 2.6999999284744263;" width="230.4" x="257.4" y="614.6297"/><text fill="#000000" font-family="sans-serif" font-size="25.2" lengthAdjust="spacingAndGlyphs" textLength="205.2" x="270" y="651.593">EnemyGenerator</text><rect fill="#FEFECE" filter="url(#f1)" height="54.8789" style="stroke: #A80036; stroke-width: 2.6999999284744263;" width="217.8" x="513" y="60.2789"/><text fill="#000000" font-family="sans-serif" font-size="25.2" lengthAdjust="spacingAndGlyphs" textLength="192.6" x="525.6" y="97.2422">DefenceTower1</text><rect fill="#FEFECE" filter="url(#f1)" height="54.8789" style="stroke: #A80036; stroke-width: 2.6999999284744263;" width="217.8" x="513" y="614.6297"/><text fill="#000000" font-family="sans-serif" font-size="25.2" lengthAdjust="spacingAndGlyphs" textLength="192.6" x="525.6" y="651.593">DefenceTower1</text><rect fill="#FEFECE" filter="url(#f1)" height="54.8789" style="stroke: #A80036; stroke-width: 2.6999999284744263;" width="217.8" x="756" y="60.2789"/><text fill="#000000" font-family="sans-serif" font-size="25.2" lengthAdjust="spacingAndGlyphs" textLength="192.6" x="768.6" y="97.2422">DefenceTower2</text><rect fill="#FEFECE" filter="url(#f1)" height="54.8789" style="stroke: #A80036; stroke-width: 2.6999999284744263;" width="217.8" x="756" y="614.6297"/><text fill="#000000" font-family="sans-serif" font-size="25.2" lengthAdjust="spacingAndGlyphs" textLength="192.6" x="768.6" y="651.593">DefenceTower2</text><rect fill="none" height="431.0719" style="stroke: #000000; stroke-width: 3.5999999046325684;" width="977.4" x="21.6" y="154.7578"/><polygon fill="#EEEEEE" points="21.6,154.7578,423,154.7578,423,167.3578,405,185.3578,21.6,185.3578,21.6,154.7578" style="stroke: #000000; stroke-width: 3.5999999046325684;"/><text fill="#000000" font-family="sans-serif" font-size="23.4" font-weight="bold" lengthAdjust="spacingAndGlyphs" textLength="320.4" x="48.6" y="179.1809">Intercepting alien missiles</text><line style="stroke: #A80036; stroke-width: 1.7999999523162842;" x1="145.8" x2="221.4" y1="224.2758" y2="224.2758"/><line style="stroke: #A80036; stroke-width: 1.7999999523162842;" x1="221.4" x2="221.4" y1="224.2758" y2="247.6758"/><line style="stroke: #A80036; stroke-width: 1.7999999523162842;" x1="147.6" x2="221.4" y1="247.6758" y2="247.6758"/><polygon fill="#A80036" points="165.6,240.4758,147.6,247.6758,165.6,254.8758,158.4,247.6758" style="stroke: #A80036; stroke-width: 1.7999999523162842;"/><text fill="#000000" font-family="sans-serif" font-size="23.4" lengthAdjust="spacingAndGlyphs" textLength="48.6" x="158.4" y="215.7398">Tick</text><polygon fill="#A80036" points="354.6,292.6758,372.6,299.8758,354.6,307.0758,361.8,299.8758" style="stroke: #A80036; stroke-width: 1.7999999523162842;"/><line style="stroke: #A80036; stroke-width: 1.7999999523162842;" x1="145.8" x2="365.4" y1="299.8758" y2="299.8758"/><text fill="#000000" font-family="sans-serif" font-size="23.4" lengthAdjust="spacingAndGlyphs" textLength="178.2" x="158.4" y="291.8988">PingForEnemies</text><polygon fill="#FBFB77" filter="url(#f1)" points="57.6,323.8348,232.2,323.8348,250.2,343.6348,232.2,365.2348,57.6,365.2348,39.6,343.6348,57.6,323.8348" style="stroke: #A80036; stroke-width: 1.7999999523162842;"/><text fill="#000000" font-family="sans-serif" font-size="23.4" lengthAdjust="spacingAndGlyphs" textLength="167.4" x="61.2" y="353.6578">Calculate state</text><polygon fill="#A80036" points="603.9,405.3937,621.9,412.5937,603.9,419.7937,611.1,412.5937" style="stroke: #A80036; stroke-width: 1.7999999523162842;"/><line style="stroke: #A80036; stroke-width: 1.7999999523162842;" x1="145.8" x2="614.7" y1="412.5937" y2="412.5937"/><text fill="#000000" font-family="sans-serif" font-size="23.4" lengthAdjust="spacingAndGlyphs" textLength="196.2" x="158.4" y="404.6168">Tactical situation</text><polygon fill="#A80036" points="846.9,458.1527,864.9,465.3527,846.9,472.5527,854.1,465.3527" style="stroke: #A80036; stroke-width: 1.7999999523162842;"/><line style="stroke: #A80036; stroke-width: 1.7999999523162842;" x1="145.8" x2="857.7" y1="465.3527" y2="465.3527"/><text fill="#000000" font-family="sans-serif" font-size="23.4" lengthAdjust="spacingAndGlyphs" textLength="196.2" x="158.4" y="457.3758">Tactical situation</text><polygon fill="#A80036" points="165.6,510.9117,147.6,518.1117,165.6,525.3117,158.4,518.1117" style="stroke: #A80036; stroke-width: 1.7999999523162842;"/><line style="stroke: #A80036; stroke-width: 1.7999999523162842;" x1="154.8" x2="866.7" y1="518.1117" y2="518.1117"/><text fill="#000000" font-family="sans-serif" font-size="23.4" lengthAdjust="spacingAndGlyphs" textLength="136.8" x="176.4" y="510.1348">Rocket fired</text><polygon fill="#A80036" points="165.6,563.6707,147.6,570.8707,165.6,578.0707,158.4,570.8707" style="stroke: #A80036; stroke-width: 1.7999999523162842;"/><line style="stroke: #A80036; stroke-width: 1.7999999523162842;" x1="154.8" x2="374.4" y1="570.8707" y2="570.8707"/><text fill="#000000" font-family="sans-serif" font-size="23.4" lengthAdjust="spacingAndGlyphs" textLength="57.6" x="176.4" y="562.8937">Wave</text></g></svg>