<?xml version="1.0" encoding="UTF-8" standalone="yes"?><svg xmlns="http://www.w3.org/2000/svg" xmlns:xlink="http://www.w3.org/1999/xlink" height="1035px" style="width:1270px;height:1034px;" version="1.1" viewBox="0 0 1270 1034" width="1270.8px"><defs><filter height="300%" id="f1" width="300%" x="-1" y="-1"><feGaussianBlur result="blurOut" stdDeviation="3.5999999046325684"/><feColorMatrix in="blurOut" result="blurOut2" type="matrix" values="0 0 0 0 0 0 0 0 0 0 0 0 0 0 0 0 0 0 .4 0"/><feOffset dx="7.199999809265137" dy="7.199999809265137" in="blurOut2" result="blurOut3"/><feBlend in="SourceGraphic" in2="blurOut3" mode="normal"/></filter></defs><g><text fill="#000000" font-family="sans-serif" font-size="25.2" font-weight="bold" lengthAdjust="spacingAndGlyphs" textLength="194.4" x="541.8" y="42.3633">Reporting flow</text><rect fill="#FFFFFF" filter="url(#f1)" height="781.2668" style="stroke: #000000; stroke-width: 3.5999999046325684;" width="1231.2" x="23.4" y="154.7578"/><line style="stroke: #A80036; stroke-width: 1.7999999523162842; stroke-dasharray: 5.0,5.0;" x1="135" x2="135" y1="124.1578" y2="966.6246"/><line style="stroke: #A80036; stroke-width: 1.7999999523162842; stroke-dasharray: 5.0,5.0;" x1="358.2" x2="358.2" y1="124.1578" y2="966.6246"/><line style="stroke: #A80036; stroke-width: 1.7999999523162842; stroke-dasharray: 5.0,5.0;" x1="601.2" x2="601.2" y1="124.1578" y2="966.6246"/><line style="stroke: #A80036; stroke-width: 1.7999999523162842; stroke-dasharray: 5.0,5.0;" x1="829.8" x2="829.8" y1="124.1578" y2="966.6246"/><line style="stroke: #A80036; stroke-width: 1.7999999523162842; stroke-dasharray: 5.0,5.0;" x1="1022.4" x2="1022.4" y1="124.1578" y2="966.6246"/><line style="stroke: #A80036; stroke-width: 1.7999999523162842; stroke-dasharray: 5.0,5.0;" x1="1164.6" x2="1164.6" y1="124.1578" y2="966.6246"/><rect fill="#FEFECE" filter="url(#f1)" height="54.8789" style="stroke: #A80036; stroke-width: 2.6999999284744263;" width="180" x="41.4" y="60.2789"/><text fill="#000000" font-family="sans-serif" font-size="25.2" lengthAdjust="spacingAndGlyphs" textLength="154.8" x="54" y="97.2422">GameEngine</text><rect fill="#FEFECE" filter="url(#f1)" height="54.8789" style="stroke: #A80036; stroke-width: 2.6999999284744263;" width="180" x="41.4" y="964.8246"/><text fill="#000000" font-family="sans-serif" font-size="25.2" lengthAdjust="spacingAndGlyphs" textLength="154.8" x="54" y="1001.7879">GameEngine</text><rect fill="#FEFECE" filter="url(#f1)" height="54.8789" style="stroke: #A80036; stroke-width: 2.6999999284744263;" width="217.8" x="246.6" y="60.2789"/><text fill="#000000" font-family="sans-serif" font-size="25.2" lengthAdjust="spacingAndGlyphs" textLength="192.6" x="259.2" y="97.2422">DefenceTower1</text><rect fill="#FEFECE" filter="url(#f1)" height="54.8789" style="stroke: #A80036; stroke-width: 2.6999999284744263;" width="217.8" x="246.6" y="964.8246"/><text fill="#000000" font-family="sans-serif" font-size="25.2" lengthAdjust="spacingAndGlyphs" textLength="192.6" x="259.2" y="1001.7879">DefenceTower1</text><rect fill="#FEFECE" filter="url(#f1)" height="54.8789" style="stroke: #A80036; stroke-width: 2.6999999284744263;" width="217.8" x="489.6" y="60.2789"/><text fill="#000000" font-family="sans-serif" font-size="25.2" lengthAdjust="spacingAndGlyphs" textLength="192.6" x="502.2" y="97.2422">DefenceTower2</text><rect fill="#FEFECE" filter="url(#f1)" height="54.8789" style="stroke: #A80036; stroke-width: 2.6999999284744263;" width="217.8" x="489.6" y="964.8246"/><text fill="#000000" font-family="sans-serif" font-size="25.2" lengthAdjust="spacingAndGlyphs" textLength="192.6" x="502.2" y="1001.7879">DefenceTower2</text><rect fill="#FEFECE" filter="url(#f1)" height="54.8789" style="stroke: #A80036; stroke-width: 2.6999999284744263;" width="187.2" x="732.6" y="60.2789"/><text fill="#000000" font-family="sans-serif" font-size="25.2" lengthAdjust="spacingAndGlyphs" textLength="162" x="745.2" y="97.2422">StatusKeeper</text><rect fill="#FEFECE" filter="url(#f1)" height="54.8789" style="stroke: #A80036; stroke-width: 2.6999999284744263;" width="187.2" x="732.6" y="964.8246"/><text fill="#000000" font-family="sans-serif" font-size="25.2" lengthAdjust="spacingAndGlyphs" textLength="162" x="745.2" y="1001.7879">StatusKeeper</text><rect fill="#FEFECE" filter="url(#f1)" height="54.8789" style="stroke: #A80036; stroke-width: 2.6999999284744263;" width="149.4" x="945" y="60.2789"/><text fill="#000000" font-family="sans-serif" font-size="25.2" lengthAdjust="spacingAndGlyphs" textLength="124.2" x="957.6" y="97.2422">UiUpdater</text><rect fill="#FEFECE" filter="url(#f1)" height="54.8789" style="stroke: #A80036; stroke-width: 2.6999999284744263;" width="149.4" x="945" y="964.8246"/><text fill="#000000" font-family="sans-serif" font-size="25.2" lengthAdjust="spacingAndGlyphs" textLength="124.2" x="957.6" y="1001.7879">UiUpdater</text><rect fill="#FEFECE" filter="url(#f1)" height="54.8789" style="stroke: #A80036; stroke-width: 2.6999999284744263;" width="82.8" x="1119.6" y="60.2789"/><text fill="#000000" font-family="sans-serif" font-size="25.2" lengthAdjust="spacingAndGlyphs" textLength="57.6" x="1132.2" y="97.2422">CliUi</text><rect fill="#FEFECE" filter="url(#f1)" height="54.8789" style="stroke: #A80036; stroke-width: 2.6999999284744263;" width="82.8" x="1119.6" y="964.8246"/><text fill="#000000" font-family="sans-serif" font-size="25.2" lengthAdjust="spacingAndGlyphs" textLength="57.6" x="1132.2" y="1001.7879">CliUi</text><rect fill="none" height="781.2668" style="stroke: #000000; stroke-width: 3.5999999046325684;" width="1231.2" x="23.4" y="154.7578"/><polygon fill="#EEEEEE" points="23.4,154.7578,225,154.7578,225,167.3578,207,185.3578,23.4,185.3578,23.4,154.7578" style="stroke: #000000; stroke-width: 3.5999999046325684;"/><text fill="#000000" font-family="sans-serif" font-size="23.4" font-weight="bold" lengthAdjust="spacingAndGlyphs" textLength="120.6" x="50.4" y="179.1809">Reporting</text><line style="stroke: #A80036; stroke-width: 1.7999999523162842;" x1="135" x2="210.6" y1="224.2758" y2="224.2758"/><line style="stroke: #A80036; stroke-width: 1.7999999523162842;" x1="210.6" x2="210.6" y1="224.2758" y2="247.6758"/><line style="stroke: #A80036; stroke-width: 1.7999999523162842;" x1="136.8" x2="210.6" y1="247.6758" y2="247.6758"/><polygon fill="#A80036" points="154.8,240.4758,136.8,247.6758,154.8,254.8758,147.6,247.6758" style="stroke: #A80036; stroke-width: 1.7999999523162842;"/><text fill="#000000" font-family="sans-serif" font-size="23.4" lengthAdjust="spacingAndGlyphs" textLength="48.6" x="147.6" y="215.7398">Tick</text><line style="stroke: #A80036; stroke-width: 1.7999999523162842;" x1="359.1" x2="434.7" y1="300.4348" y2="300.4348"/><line style="stroke: #A80036; stroke-width: 1.7999999523162842;" x1="434.7" x2="434.7" y1="300.4348" y2="323.8348"/><line style="stroke: #A80036; stroke-width: 1.7999999523162842;" x1="360.9" x2="434.7" y1="323.8348" y2="323.8348"/><polygon fill="#A80036" points="378.9,316.6348,360.9,323.8348,378.9,331.0348,371.7,323.8348" style="stroke: #A80036; stroke-width: 1.7999999523162842;"/><text fill="#000000" font-family="sans-serif" font-size="23.4" lengthAdjust="spacingAndGlyphs" textLength="48.6" x="371.7" y="291.8988">Tick</text><polygon fill="#A80036" points="808.2,368.8348,826.2,376.0348,808.2,383.2348,815.4,376.0348" style="stroke: #A80036; stroke-width: 1.7999999523162842;"/><line style="stroke: #A80036; stroke-width: 1.7999999523162842;" x1="359.1" x2="819" y1="376.0348" y2="376.0348"/><text fill="#000000" font-family="sans-serif" font-size="23.4" lengthAdjust="spacingAndGlyphs" textLength="131.4" x="371.7" y="368.0578">Tower state</text><line style="stroke: #A80036; stroke-width: 1.7999999523162842;" x1="602.1" x2="677.7" y1="429.3527" y2="429.3527"/><line style="stroke: #A80036; stroke-width: 1.7999999523162842;" x1="677.7" x2="677.7" y1="429.3527" y2="452.7527"/><line style="stroke: #A80036; stroke-width: 1.7999999523162842;" x1="603.9" x2="677.7" y1="452.7527" y2="452.7527"/><polygon fill="#A80036" points="621.9,445.5527,603.9,452.7527,621.9,459.9527,614.7,452.7527" style="stroke: #A80036; stroke-width: 1.7999999523162842;"/><text fill="#000000" font-family="sans-serif" font-size="23.4" lengthAdjust="spacingAndGlyphs" textLength="48.6" x="614.7" y="420.8168">Tick</text><polygon fill="#A80036" points="808.2,497.7527,826.2,504.9527,808.2,512.1527,815.4,504.9527" style="stroke: #A80036; stroke-width: 1.7999999523162842;"/><line style="stroke: #A80036; stroke-width: 1.7999999523162842;" x1="602.1" x2="819" y1="504.9527" y2="504.9527"/><text fill="#000000" font-family="sans-serif" font-size="23.4" lengthAdjust="spacingAndGlyphs" textLength="131.4" x="614.7" y="496.9758">Tower state</text><polygon fill="#A80036" points="808.2,550.5117,826.2,557.7117,808.2,564.9117,815.4,557.7117" style="stroke: #A80036; stroke-width: 1.7999999523162842;"/><line style="stroke: #A80036; stroke-width: 1.7999999523162842;" x1="135" x2="819" y1="557.7117" y2="557.7117"/><text fill="#000000" font-family="sans-serif" font-size="23.4" lengthAdjust="spacingAndGlyphs" textLength="196.2" x="147.6" y="549.7348">Tactical situation</text><line style="stroke: #A80036; stroke-width: 1.7999999523162842;" x1="1023.3" x2="1098.9" y1="611.0297" y2="611.0297"/><line style="stroke: #A80036; stroke-width: 1.7999999523162842;" x1="1098.9" x2="1098.9" y1="611.0297" y2="634.4297"/><line style="stroke: #A80036; stroke-width: 1.7999999523162842;" x1="1025.1" x2="1098.9" y1="634.4297" y2="634.4297"/><polygon fill="#A80036" points="1043.1,627.2297,1025.1,634.4297,1043.1,641.6297,1035.9,634.4297" style="stroke: #A80036; stroke-width: 1.7999999523162842;"/><text fill="#000000" font-family="sans-serif" font-size="23.4" lengthAdjust="spacingAndGlyphs" textLength="48.6" x="1035.9" y="602.4937">Tick</text><polygon fill="#A80036" points="849.6,679.4297,831.6,686.6297,849.6,693.8297,842.4,686.6297" style="stroke: #A80036; stroke-width: 1.7999999523162842;"/><line style="stroke: #A80036; stroke-width: 1.7999999523162842;" x1="838.8" x2="1021.5" y1="686.6297" y2="686.6297"/><text fill="#000000" font-family="sans-serif" font-size="23.4" lengthAdjust="spacingAndGlyphs" textLength="145.8" x="860.4" y="678.6527">Ask for state</text><polygon fill="#A80036" points="1001.7,732.1887,1019.7,739.3887,1001.7,746.5887,1008.9,739.3887" style="stroke: #A80036; stroke-width: 1.7999999523162842;"/><line style="stroke: #A80036; stroke-width: 1.7999999523162842;" x1="829.8" x2="1012.5" y1="739.3887" y2="739.3887"/><text fill="#000000" font-family="sans-serif" font-size="23.4" lengthAdjust="spacingAndGlyphs" textLength="147.6" x="842.4" y="731.4117">Current state</text><line style="stroke: #A80036; stroke-width: 1.7999999523162842;" x1="1164.6" x2="1240.2" y1="792.7066" y2="792.7066"/><line style="stroke: #A80036; stroke-width: 1.7999999523162842;" x1="1240.2" x2="1240.2" y1="792.7066" y2="816.1066"/><line style="stroke: #A80036; stroke-width: 1.7999999523162842;" x1="1166.4" x2="1240.2" y1="816.1066" y2="816.1066"/><polygon fill="#A80036" points="1184.4,808.9066,1166.4,816.1066,1184.4,823.3066,1177.2,816.1066" style="stroke: #A80036; stroke-width: 1.7999999523162842;"/><text fill="#000000" font-family="sans-serif" font-size="23.4" lengthAdjust="spacingAndGlyphs" textLength="48.6" x="1177.2" y="784.1707">Tick</text><polygon fill="#A80036" points="849.6,861.1066,831.6,868.3066,849.6,875.5066,842.4,868.3066" style="stroke: #A80036; stroke-width: 1.7999999523162842;"/><line style="stroke: #A80036; stroke-width: 1.7999999523162842;" x1="838.8" x2="1162.8" y1="868.3066" y2="868.3066"/><text fill="#000000" font-family="sans-serif" font-size="23.4" lengthAdjust="spacingAndGlyphs" textLength="145.8" x="860.4" y="860.3297">Ask for state</text><polygon fill="#A80036" points="1143,913.8656,1161,921.0656,1143,928.2656,1150.2,921.0656" style="stroke: #A80036; stroke-width: 1.7999999523162842;"/><line style="stroke: #A80036; stroke-width: 1.7999999523162842;" x1="829.8" x2="1153.8" y1="921.0656" y2="921.0656"/><text fill="#000000" font-family="sans-serif" font-size="23.4" lengthAdjust="spacingAndGlyphs" textLength="147.6" x="842.4" y="913.0886">Current state</text></g></svg>