<?xml version="1.0" encoding="UTF-8" standalone="yes"?><svg xmlns="http://www.w3.org/2000/svg" xmlns:xlink="http://www.w3.org/1999/xlink" height="920px" style="width:1129px;height:920px;" version="1.1" viewBox="0 0 1129 920" width="1129.6px"><defs><filter height="300%" id="f1" width="300%" x="-1" y="-1"><feGaussianBlur result="blurOut" stdDeviation="3.200000047683716"/><feColorMatrix in="blurOut" result="blurOut2" type="matrix" values="0 0 0 0 0 0 0 0 0 0 0 0 0 0 0 0 0 0 .4 0"/><feOffset dx="6.400000095367432" dy="6.400000095367432" in="blurOut2" result="blurOut3"/><feBlend in="SourceGraphic" in2="blurOut3" mode="normal"/></filter></defs><g><text fill="#000000" font-family="sans-serif" font-size="22.4" font-weight="bold" lengthAdjust="spacingAndGlyphs" textLength="172.8" x="481.6" y="37.6563">Reporting flow</text><rect fill="#FFFFFF" filter="url(#f1)" height="694.4594" style="stroke: #000000; stroke-width: 3.200000047683716;" width="1094.4" x="20.8" y="137.5625"/><line style="stroke: #A80036; stroke-width: 1.600000023841858; stroke-dasharray: 5.0,5.0;" x1="120" x2="120" y1="110.3625" y2="859.2219"/><line style="stroke: #A80036; stroke-width: 1.600000023841858; stroke-dasharray: 5.0,5.0;" x1="318.4" x2="318.4" y1="110.3625" y2="859.2219"/><line style="stroke: #A80036; stroke-width: 1.600000023841858; stroke-dasharray: 5.0,5.0;" x1="534.4" x2="534.4" y1="110.3625" y2="859.2219"/><line style="stroke: #A80036; stroke-width: 1.600000023841858; stroke-dasharray: 5.0,5.0;" x1="737.6" x2="737.6" y1="110.3625" y2="859.2219"/><line style="stroke: #A80036; stroke-width: 1.600000023841858; stroke-dasharray: 5.0,5.0;" x1="908.8" x2="908.8" y1="110.3625" y2="859.2219"/><line style="stroke: #A80036; stroke-width: 1.600000023841858; stroke-dasharray: 5.0,5.0;" x1="1035.2" x2="1035.2" y1="110.3625" y2="859.2219"/><rect fill="#FEFECE" filter="url(#f1)" height="48.7813" style="stroke: #A80036; stroke-width: 2.400000035762787;" width="160" x="36.8" y="53.5813"/><text fill="#000000" font-family="sans-serif" font-size="22.4" lengthAdjust="spacingAndGlyphs" textLength="137.6" x="48" y="86.4375">GameEngine</text><rect fill="#FEFECE" filter="url(#f1)" height="48.7813" style="stroke: #A80036; stroke-width: 2.400000035762787;" width="160" x="36.8" y="857.6219"/><text fill="#000000" font-family="sans-serif" font-size="22.4" lengthAdjust="spacingAndGlyphs" textLength="137.6" x="48" y="890.4781">GameEngine</text><rect fill="#FEFECE" filter="url(#f1)" height="48.7813" style="stroke: #A80036; stroke-width: 2.400000035762787;" width="193.6" x="219.2" y="53.5813"/><text fill="#000000" font-family="sans-serif" font-size="22.4" lengthAdjust="spacingAndGlyphs" textLength="171.2" x="230.4" y="86.4375">DefenceTower1</text><rect fill="#FEFECE" filter="url(#f1)" height="48.7813" style="stroke: #A80036; stroke-width: 2.400000035762787;" width="193.6" x="219.2" y="857.6219"/><text fill="#000000" font-family="sans-serif" font-size="22.4" lengthAdjust="spacingAndGlyphs" textLength="171.2" x="230.4" y="890.4781">DefenceTower1</text><rect fill="#FEFECE" filter="url(#f1)" height="48.7813" style="stroke: #A80036; stroke-width: 2.400000035762787;" width="193.6" x="435.2" y="53.5813"/><text fill="#000000" font-family="sans-serif" font-size="22.4" lengthAdjust="spacingAndGlyphs" textLength="171.2" x="446.4" y="86.4375">DefenceTower2</text><rect fill="#FEFECE" filter="url(#f1)" height="48.7813" style="stroke: #A80036; stroke-width: 2.400000035762787;" width="193.6" x="435.2" y="857.6219"/><text fill="#000000" font-family="sans-serif" font-size="22.4" lengthAdjust="spacingAndGlyphs" textLength="171.2" x="446.4" y="890.4781">DefenceTower2</text><rect fill="#FEFECE" filter="url(#f1)" height="48.7813" style="stroke: #A80036; stroke-width: 2.400000035762787;" width="166.4" x="651.2" y="53.5813"/><text fill="#000000" font-family="sans-serif" font-size="22.4" lengthAdjust="spacingAndGlyphs" textLength="144" x="662.4" y="86.4375">StatusKeeper</text><rect fill="#FEFECE" filter="url(#f1)" height="48.7813" style="stroke: #A80036; stroke-width: 2.400000035762787;" width="166.4" x="651.2" y="857.6219"/><text fill="#000000" font-family="sans-serif" font-size="22.4" lengthAdjust="spacingAndGlyphs" textLength="144" x="662.4" y="890.4781">StatusKeeper</text><rect fill="#FEFECE" filter="url(#f1)" height="48.7813" style="stroke: #A80036; stroke-width: 2.400000035762787;" width="132.8" x="840" y="53.5813"/><text fill="#000000" font-family="sans-serif" font-size="22.4" lengthAdjust="spacingAndGlyphs" textLength="110.4" x="851.2" y="86.4375">UiUpdater</text><rect fill="#FEFECE" filter="url(#f1)" height="48.7813" style="stroke: #A80036; stroke-width: 2.400000035762787;" width="132.8" x="840" y="857.6219"/><text fill="#000000" font-family="sans-serif" font-size="22.4" lengthAdjust="spacingAndGlyphs" textLength="110.4" x="851.2" y="890.4781">UiUpdater</text><rect fill="#FEFECE" filter="url(#f1)" height="48.7813" style="stroke: #A80036; stroke-width: 2.400000035762787;" width="73.6" x="995.2" y="53.5813"/><text fill="#000000" font-family="sans-serif" font-size="22.4" lengthAdjust="spacingAndGlyphs" textLength="51.2" x="1006.4" y="86.4375">CliUi</text><rect fill="#FEFECE" filter="url(#f1)" height="48.7813" style="stroke: #A80036; stroke-width: 2.400000035762787;" width="73.6" x="995.2" y="857.6219"/><text fill="#000000" font-family="sans-serif" font-size="22.4" lengthAdjust="spacingAndGlyphs" textLength="51.2" x="1006.4" y="890.4781">CliUi</text><rect fill="none" height="694.4594" style="stroke: #000000; stroke-width: 3.200000047683716;" width="1094.4" x="20.8" y="137.5625"/><polygon fill="#EEEEEE" points="20.8,137.5625,200,137.5625,200,148.7625,184,164.7625,20.8,164.7625,20.8,137.5625" style="stroke: #000000; stroke-width: 3.200000047683716;"/><text fill="#000000" font-family="sans-serif" font-size="20.8" font-weight="bold" lengthAdjust="spacingAndGlyphs" textLength="107.2" x="44.8" y="159.2719">Reporting</text><line style="stroke: #A80036; stroke-width: 1.600000023841858;" x1="120" x2="187.2" y1="199.3563" y2="199.3563"/><line style="stroke: #A80036; stroke-width: 1.600000023841858;" x1="187.2" x2="187.2" y1="199.3563" y2="220.1563"/><line style="stroke: #A80036; stroke-width: 1.600000023841858;" x1="121.6" x2="187.2" y1="220.1563" y2="220.1563"/><polygon fill="#A80036" points="137.6,213.7563,121.6,220.1563,137.6,226.5563,131.2,220.1563" style="stroke: #A80036; stroke-width: 1.600000023841858;"/><text fill="#000000" font-family="sans-serif" font-size="20.8" lengthAdjust="spacingAndGlyphs" textLength="43.2" x="131.2" y="191.7688">Tick</text><polygon fill="#A80036" points="718.4,260.1563,734.4,266.5563,718.4,272.9563,724.8,266.5563" style="stroke: #A80036; stroke-width: 1.600000023841858;"/><line style="stroke: #A80036; stroke-width: 1.600000023841858;" x1="120" x2="728" y1="266.5563" y2="266.5563"/><text fill="#000000" font-family="sans-serif" font-size="20.8" lengthAdjust="spacingAndGlyphs" textLength="174.4" x="131.2" y="259.4656">Tactical situation</text><line style="stroke: #A80036; stroke-width: 1.600000023841858;" x1="319.2" x2="386.4" y1="313.95" y2="313.95"/><line style="stroke: #A80036; stroke-width: 1.600000023841858;" x1="386.4" x2="386.4" y1="313.95" y2="334.75"/><line style="stroke: #A80036; stroke-width: 1.600000023841858;" x1="320.8" x2="386.4" y1="334.75" y2="334.75"/><polygon fill="#A80036" points="336.8,328.35,320.8,334.75,336.8,341.15,330.4,334.75" style="stroke: #A80036; stroke-width: 1.600000023841858;"/><text fill="#000000" font-family="sans-serif" font-size="20.8" lengthAdjust="spacingAndGlyphs" textLength="43.2" x="330.4" y="306.3625">Tick</text><polygon fill="#A80036" points="718.4,374.75,734.4,381.15,718.4,387.55,724.8,381.15" style="stroke: #A80036; stroke-width: 1.600000023841858;"/><line style="stroke: #A80036; stroke-width: 1.600000023841858;" x1="319.2" x2="728" y1="381.15" y2="381.15"/><text fill="#000000" font-family="sans-serif" font-size="20.8" lengthAdjust="spacingAndGlyphs" textLength="116.8" x="330.4" y="374.0594">Tower state</text><line style="stroke: #A80036; stroke-width: 1.600000023841858;" x1="535.2" x2="602.4" y1="428.5438" y2="428.5438"/><line style="stroke: #A80036; stroke-width: 1.600000023841858;" x1="602.4" x2="602.4" y1="428.5438" y2="449.3438"/><line style="stroke: #A80036; stroke-width: 1.600000023841858;" x1="536.8" x2="602.4" y1="449.3438" y2="449.3438"/><polygon fill="#A80036" points="552.8,442.9438,536.8,449.3438,552.8,455.7438,546.4,449.3438" style="stroke: #A80036; stroke-width: 1.600000023841858;"/><text fill="#000000" font-family="sans-serif" font-size="20.8" lengthAdjust="spacingAndGlyphs" textLength="43.2" x="546.4" y="420.9563">Tick</text><polygon fill="#A80036" points="718.4,489.3438,734.4,495.7438,718.4,502.1438,724.8,495.7438" style="stroke: #A80036; stroke-width: 1.600000023841858;"/><line style="stroke: #A80036; stroke-width: 1.600000023841858;" x1="535.2" x2="728" y1="495.7438" y2="495.7438"/><text fill="#000000" font-family="sans-serif" font-size="20.8" lengthAdjust="spacingAndGlyphs" textLength="116.8" x="546.4" y="488.6531">Tower state</text><line style="stroke: #A80036; stroke-width: 1.600000023841858;" x1="909.6" x2="976.8" y1="543.1375" y2="543.1375"/><line style="stroke: #A80036; stroke-width: 1.600000023841858;" x1="976.8" x2="976.8" y1="543.1375" y2="563.9375"/><line style="stroke: #A80036; stroke-width: 1.600000023841858;" x1="911.2" x2="976.8" y1="563.9375" y2="563.9375"/><polygon fill="#A80036" points="927.2,557.5375,911.2,563.9375,927.2,570.3375,920.8,563.9375" style="stroke: #A80036; stroke-width: 1.600000023841858;"/><text fill="#000000" font-family="sans-serif" font-size="20.8" lengthAdjust="spacingAndGlyphs" textLength="43.2" x="920.8" y="535.55">Tick</text><polygon fill="#A80036" points="755.2,603.9375,739.2,610.3375,755.2,616.7375,748.8,610.3375" style="stroke: #A80036; stroke-width: 1.600000023841858;"/><line style="stroke: #A80036; stroke-width: 1.600000023841858;" x1="745.6" x2="908" y1="610.3375" y2="610.3375"/><text fill="#000000" font-family="sans-serif" font-size="20.8" lengthAdjust="spacingAndGlyphs" textLength="129.6" x="764.8" y="603.2469">Ask for state</text><polygon fill="#A80036" points="890.4,650.8344,906.4,657.2344,890.4,663.6344,896.8,657.2344" style="stroke: #A80036; stroke-width: 1.600000023841858;"/><line style="stroke: #A80036; stroke-width: 1.600000023841858;" x1="737.6" x2="900" y1="657.2344" y2="657.2344"/><text fill="#000000" font-family="sans-serif" font-size="20.8" lengthAdjust="spacingAndGlyphs" textLength="131.2" x="748.8" y="650.1438">Current state</text><line style="stroke: #A80036; stroke-width: 1.600000023841858;" x1="1035.2" x2="1102.4" y1="704.6281" y2="704.6281"/><line style="stroke: #A80036; stroke-width: 1.600000023841858;" x1="1102.4" x2="1102.4" y1="704.6281" y2="725.4281"/><line style="stroke: #A80036; stroke-width: 1.600000023841858;" x1="1036.8" x2="1102.4" y1="725.4281" y2="725.4281"/><polygon fill="#A80036" points="1052.8,719.0281,1036.8,725.4281,1052.8,731.8281,1046.4,725.4281" style="stroke: #A80036; stroke-width: 1.600000023841858;"/><text fill="#000000" font-family="sans-serif" font-size="20.8" lengthAdjust="spacingAndGlyphs" textLength="43.2" x="1046.4" y="697.0406">Tick</text><polygon fill="#A80036" points="755.2,765.4281,739.2,771.8281,755.2,778.2281,748.8,771.8281" style="stroke: #A80036; stroke-width: 1.600000023841858;"/><line style="stroke: #A80036; stroke-width: 1.600000023841858;" x1="745.6" x2="1033.6" y1="771.8281" y2="771.8281"/><text fill="#000000" font-family="sans-serif" font-size="20.8" lengthAdjust="spacingAndGlyphs" textLength="129.6" x="764.8" y="764.7375">Ask for state</text><polygon fill="#A80036" points="1016,812.325,1032,818.725,1016,825.125,1022.4,818.725" style="stroke: #A80036; stroke-width: 1.600000023841858;"/><line style="stroke: #A80036; stroke-width: 1.600000023841858;" x1="737.6" x2="1025.6" y1="818.725" y2="818.725"/><text fill="#000000" font-family="sans-serif" font-size="20.8" lengthAdjust="spacingAndGlyphs" textLength="131.2" x="748.8" y="811.6344">Current state</text></g></svg>